<svg xmlns="http://www.w3.org/2000/svg" width="1200" height="630" viewBox="0 0 1200 630" role="img" aria-label="嵌入式 C 第七篇：map 文件与 MCU 内存分布">
  <defs>
    <linearGradient id="bg" x1="0" y1="0" x2="1" y2="1"><stop offset="0" stop-color="#111827"/><stop offset="1" stop-color="#05070b"/></linearGradient>
    <pattern id="grid" width="44" height="44" patternUnits="userSpaceOnUse"><path d="M44 0H0V44" fill="none" stroke="#7dd3fc" stroke-opacity="0.075" stroke-width="1"/></pattern>
  </defs>
  <rect width="1200" height="630" fill="url(#bg)"/>
  <rect width="1200" height="630" fill="url(#grid)"/>
  <circle cx="1034" cy="92" r="198" fill="#7dd3fc" opacity="0.105"/>
  <circle cx="128" cy="572" r="236" fill="#facc15" opacity="0.08"/>
  <rect x="64" y="74" width="1072" height="482" rx="28" fill="#ffffff" opacity="0.042" stroke="#ffffff" stroke-opacity="0.14"/>
  <text x="88" y="140" font-family="Inter, 'Noto Sans SC', Arial, sans-serif" font-size="27" font-weight="800" fill="#facc15" letter-spacing="1.5">Embedded C</text>
  <text font-family="Inter, 'Noto Sans SC', Arial, sans-serif" font-size="38" font-weight="850" fill="#f8fafc" letter-spacing="0"><tspan x="88" y="230">嵌入式 C 第七篇：</tspan><tspan x="88" y="282">map 文件与 MCU 内存分布</tspan></text>
  <path d="M88 430 H470" stroke="#7dd3fc" stroke-width="8" stroke-linecap="round"/>
  <text x="88" y="486" font-family="JetBrains Mono, Consolas, monospace" font-size="20" fill="#f8fafc" opacity="0.74">embedded-c-map-memory</text>
  <g transform="translate(806,176)"><rect x="62" y="34" width="234" height="264" rx="20" stroke="#7dd3fc" stroke-width="7" stroke-linecap="round" stroke-linejoin="round" fill="none"/><path d="M62 92h234M62 150h234M62 208h234" stroke="#facc15" stroke-width="6" stroke-linecap="round" stroke-linejoin="round" fill="none"/><text x="92" y="76" font-family="JetBrains Mono, Consolas, monospace" font-size="24" fill="#facc15">FLASH</text><text x="92" y="134" font-family="JetBrains Mono, Consolas, monospace" font-size="24" fill="#facc15">RAM</text><text x="92" y="192" font-family="JetBrains Mono, Consolas, monospace" font-size="24" fill="#facc15">STACK</text></g>
  <path d="M790 474 C880 522 1002 520 1102 456" fill="none" stroke="#facc15" stroke-width="7" stroke-linecap="round" opacity="0.48"/>
</svg>
