<svg xmlns="http://www.w3.org/2000/svg" width="1200" height="630" viewBox="0 0 1200 630" role="img" aria-label="嵌入式 C 第十篇：常见 bug 复盘合集">
  <defs>
    <linearGradient id="bg" x1="0" y1="0" x2="1" y2="1"><stop offset="0" stop-color="#111827"/><stop offset="1" stop-color="#05070b"/></linearGradient>
    <pattern id="grid" width="44" height="44" patternUnits="userSpaceOnUse"><path d="M44 0H0V44" fill="none" stroke="#7dd3fc" stroke-opacity="0.075" stroke-width="1"/></pattern>
  </defs>
  <rect width="1200" height="630" fill="url(#bg)"/>
  <rect width="1200" height="630" fill="url(#grid)"/>
  <circle cx="1034" cy="92" r="198" fill="#7dd3fc" opacity="0.105"/>
  <circle cx="128" cy="572" r="236" fill="#facc15" opacity="0.08"/>
  <rect x="64" y="74" width="1072" height="482" rx="28" fill="#ffffff" opacity="0.042" stroke="#ffffff" stroke-opacity="0.14"/>
  <text x="88" y="140" font-family="Inter, 'Noto Sans SC', Arial, sans-serif" font-size="27" font-weight="800" fill="#facc15" letter-spacing="1.5">Embedded C</text>
  <text font-family="Inter, 'Noto Sans SC', Arial, sans-serif" font-size="38" font-weight="850" fill="#f8fafc" letter-spacing="0"><tspan x="88" y="230">嵌入式 C 第十篇：</tspan><tspan x="88" y="282">常见 bug 复盘合集</tspan></text>
  <path d="M88 430 H470" stroke="#7dd3fc" stroke-width="8" stroke-linecap="round"/>
  <text x="88" y="486" font-family="JetBrains Mono, Consolas, monospace" font-size="20" fill="#f8fafc" opacity="0.74">embedded-c-bug-review</text>
  <g transform="translate(812,186)"><path d="M46 76h242M46 156h242M46 236h242" stroke="#7dd3fc" stroke-width="7" stroke-linecap="round" stroke-linejoin="round" fill="none"/><circle cx="92" cy="76" r="22" fill="#facc15"/><circle cx="206" cy="156" r="22" fill="#7dd3fc"/><circle cx="134" cy="236" r="22" fill="#facc15" opacity="0.85"/></g>
  <path d="M790 474 C880 522 1002 520 1102 456" fill="none" stroke="#facc15" stroke-width="7" stroke-linecap="round" opacity="0.48"/>
</svg>
