<svg xmlns="http://www.w3.org/2000/svg" width="1200" height="630" viewBox="0 0 1200 630" role="img" aria-label="eSSD 固件 C 语言实践：请求队列与状态机设计">
  <defs>
    <linearGradient id="bg" x1="0" y1="0" x2="1" y2="1"><stop offset="0" stop-color="#11131f"/><stop offset="1" stop-color="#070812"/></linearGradient>
    <pattern id="grid" width="44" height="44" patternUnits="userSpaceOnUse"><path d="M44 0H0V44" fill="none" stroke="#b692ff" stroke-opacity="0.075" stroke-width="1"/></pattern>
  </defs>
  <rect width="1200" height="630" fill="url(#bg)"/>
  <rect width="1200" height="630" fill="url(#grid)"/>
  <circle cx="1034" cy="92" r="198" fill="#b692ff" opacity="0.105"/>
  <circle cx="128" cy="572" r="236" fill="#58d6c8" opacity="0.08"/>
  <rect x="64" y="74" width="1072" height="482" rx="28" fill="#ffffff" opacity="0.042" stroke="#ffffff" stroke-opacity="0.14"/>
  <text x="88" y="140" font-family="Inter, 'Noto Sans SC', Arial, sans-serif" font-size="27" font-weight="800" fill="#58d6c8" letter-spacing="1.5">Storage</text>
  <text font-family="Inter, 'Noto Sans SC', Arial, sans-serif" font-size="38" font-weight="850" fill="#f7f3ff" letter-spacing="0"><tspan x="88" y="230">eSSD 固件 C 语言实践：</tspan><tspan x="88" y="282">请求队列与状态机设计</tspan></text>
  <path d="M88 430 H470" stroke="#b692ff" stroke-width="8" stroke-linecap="round"/>
  <text x="88" y="486" font-family="JetBrains Mono, Consolas, monospace" font-size="20" fill="#f7f3ff" opacity="0.74">essd-c-request-queue</text>
  <g transform="translate(804,184)"><circle cx="78" cy="92" r="42" stroke="#b692ff" stroke-width="7" stroke-linecap="round" stroke-linejoin="round" fill="none"/><circle cx="238" cy="92" r="42" stroke="#b692ff" stroke-width="7" stroke-linecap="round" stroke-linejoin="round" fill="none"/><circle cx="158" cy="226" r="42" stroke="#b692ff" stroke-width="7" stroke-linecap="round" stroke-linejoin="round" fill="none"/><path d="M120 92h72M220 132l-40 58M136 190l-38-58" stroke="#58d6c8" stroke-width="6" stroke-linecap="round" stroke-linejoin="round" fill="none"/><path d="M182 78l26 14-26 14" stroke="#58d6c8" stroke-width="6" stroke-linecap="round" stroke-linejoin="round" fill="none"/></g>
  <path d="M790 474 C880 522 1002 520 1102 456" fill="none" stroke="#58d6c8" stroke-width="7" stroke-linecap="round" opacity="0.48"/>
</svg>
