<svg xmlns="http://www.w3.org/2000/svg" width="1200" height="630" viewBox="0 0 1200 630" role="img" aria-label="FTL 固件学习笔记：L2P 映射、GC 与写放大">
  <defs>
    <linearGradient id="bg" x1="0" y1="0" x2="1" y2="1"><stop offset="0" stop-color="#11131f"/><stop offset="1" stop-color="#070812"/></linearGradient>
    <pattern id="grid" width="44" height="44" patternUnits="userSpaceOnUse"><path d="M44 0H0V44" fill="none" stroke="#b692ff" stroke-opacity="0.075" stroke-width="1"/></pattern>
  </defs>
  <rect width="1200" height="630" fill="url(#bg)"/>
  <rect width="1200" height="630" fill="url(#grid)"/>
  <circle cx="1034" cy="92" r="198" fill="#b692ff" opacity="0.105"/>
  <circle cx="128" cy="572" r="236" fill="#58d6c8" opacity="0.08"/>
  <rect x="64" y="74" width="1072" height="482" rx="28" fill="#ffffff" opacity="0.042" stroke="#ffffff" stroke-opacity="0.14"/>
  <text x="88" y="140" font-family="Inter, 'Noto Sans SC', Arial, sans-serif" font-size="27" font-weight="800" fill="#58d6c8" letter-spacing="1.5">Storage</text>
  <text font-family="Inter, 'Noto Sans SC', Arial, sans-serif" font-size="38" font-weight="850" fill="#f7f3ff" letter-spacing="0"><tspan x="88" y="230">FTL 固件学习笔记：</tspan><tspan x="88" y="282">L2P 映射、</tspan><tspan x="88" y="334">GC 与写放大</tspan></text>
  <path d="M88 430 H470" stroke="#b692ff" stroke-width="8" stroke-linecap="round"/>
  <text x="88" y="486" font-family="JetBrains Mono, Consolas, monospace" font-size="20" fill="#f7f3ff" opacity="0.74">ftl-firmware-basics</text>
  <g transform="translate(806,178)"><rect x="52" y="46" width="252" height="216" rx="22" stroke="#b692ff" stroke-width="7" stroke-linecap="round" stroke-linejoin="round" fill="none"/><path d="M92 88h172M92 132h172M92 176h172M92 220h112" stroke="#58d6c8" stroke-width="6" stroke-linecap="round" stroke-linejoin="round" fill="none"/><path d="M34 96h18M34 146h18M34 196h18M304 96h30M304 146h30M304 196h30" stroke="#b692ff" stroke-width="7" stroke-linecap="round" stroke-linejoin="round" fill="none"/></g>
  <path d="M790 474 C880 522 1002 520 1102 456" fill="none" stroke="#58d6c8" stroke-width="7" stroke-linecap="round" opacity="0.48"/>
</svg>
