<svg xmlns="http://www.w3.org/2000/svg" width="1200" height="630" viewBox="0 0 1200 630" role="img" aria-label="自定义 Agent 类型开发实战 —— 打造你的专用 AI 代理团队">
  <defs>
    <linearGradient id="bg" x1="0" y1="0" x2="1" y2="1"><stop offset="0" stop-color="#071326"/><stop offset="1" stop-color="#050812"/></linearGradient>
    <pattern id="grid" width="44" height="44" patternUnits="userSpaceOnUse"><path d="M44 0H0V44" fill="none" stroke="#7dd3fc" stroke-opacity="0.075" stroke-width="1"/></pattern>
  </defs>
  <rect width="1200" height="630" fill="url(#bg)"/>
  <rect width="1200" height="630" fill="url(#grid)"/>
  <circle cx="1034" cy="92" r="198" fill="#7dd3fc" opacity="0.105"/>
  <circle cx="128" cy="572" r="236" fill="#a78bfa" opacity="0.08"/>
  <rect x="64" y="74" width="1072" height="482" rx="28" fill="#ffffff" opacity="0.042" stroke="#ffffff" stroke-opacity="0.14"/>
  <text x="88" y="140" font-family="Inter, 'Noto Sans SC', Arial, sans-serif" font-size="27" font-weight="800" fill="#a78bfa" letter-spacing="1.5">AGENT</text>
  <text font-family="Inter, 'Noto Sans SC', Arial, sans-serif" font-size="38" font-weight="850" fill="#f5f9ff" letter-spacing="0"><tspan x="88" y="230">自定义 Agent 类型开发实战</tspan><tspan x="88" y="282">打造你的专用 AI 代理团队</tspan></text>
  <path d="M88 430 H470" stroke="#7dd3fc" stroke-width="8" stroke-linecap="round"/>
  <text x="88" y="486" font-family="JetBrains Mono, Consolas, monospace" font-size="20" fill="#f5f9ff" opacity="0.74">harness-custom-agent-types</text>
  <g transform="translate(780,176)"><circle cx="96" cy="92" r="38" fill="none" stroke="#a78bfa" stroke-width="6" stroke-linecap="round" stroke-linejoin="round"/><circle cx="232" cy="92" r="38" fill="none" stroke="#a78bfa" stroke-width="6" stroke-linecap="round" stroke-linejoin="round"/><circle cx="164" cy="208" r="42" fill="none" stroke="#a78bfa" stroke-width="6" stroke-linecap="round" stroke-linejoin="round"/><path d="M124 118l24 48M204 118l-24 48M136 208h-48M240 208h-48" stroke="#7dd3fc" stroke-width="7" stroke-linecap="round" stroke-linejoin="round" fill="none"/><circle cx="164" cy="208" r="12" fill="#a78bfa"/></g>
  <path d="M790 474 C880 522 1002 520 1102 456" fill="none" stroke="#a78bfa" stroke-width="7" stroke-linecap="round" opacity="0.48"/>
</svg>
