<svg xmlns="http://www.w3.org/2000/svg" width="1200" height="630" viewBox="0 0 1200 630" role="img" aria-label="博客导览：我的嵌入式项目、技术笔记和调试记录">
  <defs>
    <linearGradient id="bg" x1="0" y1="0" x2="1" y2="1"><stop offset="0" stop-color="#111827"/><stop offset="1" stop-color="#06080d"/></linearGradient>
    <pattern id="grid" width="44" height="44" patternUnits="userSpaceOnUse"><path d="M44 0H0V44" fill="none" stroke="#5eead4" stroke-opacity="0.075" stroke-width="1"/></pattern>
  </defs>
  <rect width="1200" height="630" fill="url(#bg)"/>
  <rect width="1200" height="630" fill="url(#grid)"/>
  <circle cx="1034" cy="92" r="198" fill="#5eead4" opacity="0.105"/>
  <circle cx="128" cy="572" r="236" fill="#fbbf24" opacity="0.08"/>
  <rect x="64" y="74" width="1072" height="482" rx="28" fill="#ffffff" opacity="0.042" stroke="#ffffff" stroke-opacity="0.14"/>
  <text x="88" y="140" font-family="Inter, 'Noto Sans SC', Arial, sans-serif" font-size="27" font-weight="800" fill="#fbbf24" letter-spacing="1.5">Engineering Notes</text>
  <text font-family="Inter, 'Noto Sans SC', Arial, sans-serif" font-size="38" font-weight="850" fill="#f8fafc" letter-spacing="0"><tspan x="88" y="230">博客导览：</tspan><tspan x="88" y="282">我的嵌入式项目、</tspan><tspan x="88" y="334">技术笔记和调试记录</tspan></text>
  <path d="M88 430 H470" stroke="#5eead4" stroke-width="8" stroke-linecap="round"/>
  <text x="88" y="486" font-family="JetBrains Mono, Consolas, monospace" font-size="20" fill="#f8fafc" opacity="0.74">hello-world</text>
  <g transform="translate(812,186)"><path d="M46 76h242M46 156h242M46 236h242" stroke="#5eead4" stroke-width="7" stroke-linecap="round" stroke-linejoin="round" fill="none"/><circle cx="92" cy="76" r="22" fill="#fbbf24"/><circle cx="206" cy="156" r="22" fill="#5eead4"/><circle cx="134" cy="236" r="22" fill="#fbbf24" opacity="0.85"/></g>
  <path d="M790 474 C880 522 1002 520 1102 456" fill="none" stroke="#fbbf24" stroke-width="7" stroke-linecap="round" opacity="0.48"/>
</svg>
