<svg xmlns="http://www.w3.org/2000/svg" width="1200" height="630" viewBox="0 0 1200 630" role="img" aria-label="Linux网络开发专题：核心数据结构（图、内存池、RingBuffer）">
  <defs>
    <linearGradient id="bg" x1="0" y1="0" x2="1" y2="1"><stop offset="0" stop-color="#101820"/><stop offset="1" stop-color="#050709"/></linearGradient>
    <pattern id="grid" width="44" height="44" patternUnits="userSpaceOnUse"><path d="M44 0H0V44" fill="none" stroke="#7dd3fc" stroke-opacity="0.075" stroke-width="1"/></pattern>
  </defs>
  <rect width="1200" height="630" fill="url(#bg)"/>
  <rect width="1200" height="630" fill="url(#grid)"/>
  <circle cx="1034" cy="92" r="198" fill="#7dd3fc" opacity="0.105"/>
  <circle cx="128" cy="572" r="236" fill="#a3e635" opacity="0.08"/>
  <rect x="64" y="74" width="1072" height="482" rx="28" fill="#ffffff" opacity="0.042" stroke="#ffffff" stroke-opacity="0.14"/>
  <text x="88" y="140" font-family="Inter, 'Noto Sans SC', Arial, sans-serif" font-size="27" font-weight="800" fill="#a3e635" letter-spacing="1.5">Linux</text>
  <text font-family="Inter, 'Noto Sans SC', Arial, sans-serif" font-size="34" font-weight="850" fill="#f8fafc" letter-spacing="0"><tspan x="88" y="214">Linux网络开发专题：</tspan><tspan x="88" y="260">核心数据结构（图、</tspan><tspan x="88" y="306">内存池、</tspan><tspan x="88" y="352">RingBuffer）</tspan></text>
  <path d="M88 430 H470" stroke="#7dd3fc" stroke-width="8" stroke-linecap="round"/>
  <text x="88" y="486" font-family="JetBrains Mono, Consolas, monospace" font-size="20" fill="#f8fafc" opacity="0.74">linux-network-core-data-structures</text>
  <g transform="translate(790,176)"><circle cx="170" cy="150" r="106" stroke="#7dd3fc" stroke-width="7" stroke-linecap="round" stroke-linejoin="round" fill="none"/><path d="M170 44a106 106 0 0 1 98 66" stroke="#a3e635" stroke-width="6" stroke-linecap="round" stroke-linejoin="round" fill="none"/><path d="M284 110l-12 48-36-34" stroke="#a3e635" stroke-width="6" stroke-linecap="round" stroke-linejoin="round" fill="none"/><circle cx="108" cy="150" r="14" fill="#7dd3fc"/><circle cx="170" cy="88" r="14" fill="#a3e635"/><circle cx="232" cy="150" r="14" fill="#7dd3fc"/><circle cx="170" cy="212" r="14" fill="#a3e635"/></g>
  <path d="M790 474 C880 522 1002 520 1102 456" fill="none" stroke="#a3e635" stroke-width="7" stroke-linecap="round" opacity="0.48"/>
</svg>
