<svg xmlns="http://www.w3.org/2000/svg" width="1200" height="630" viewBox="0 0 1200 630" role="img" aria-label="nRF52840 + STM32 主从架构设计与 Bicycle_Watch 集成实战">
  <defs>
    <linearGradient id="bg" x1="0" y1="0" x2="1" y2="1"><stop offset="0" stop-color="#101a14"/><stop offset="1" stop-color="#050806"/></linearGradient>
    <pattern id="grid" width="44" height="44" patternUnits="userSpaceOnUse"><path d="M44 0H0V44" fill="none" stroke="#63d471" stroke-opacity="0.075" stroke-width="1"/></pattern>
  </defs>
  <rect width="1200" height="630" fill="url(#bg)"/>
  <rect width="1200" height="630" fill="url(#grid)"/>
  <circle cx="1034" cy="92" r="198" fill="#63d471" opacity="0.105"/>
  <circle cx="128" cy="572" r="236" fill="#f59e0b" opacity="0.08"/>
  <rect x="64" y="74" width="1072" height="482" rx="28" fill="#ffffff" opacity="0.042" stroke="#ffffff" stroke-opacity="0.14"/>
  <text x="88" y="140" font-family="Inter, 'Noto Sans SC', Arial, sans-serif" font-size="27" font-weight="800" fill="#f59e0b" letter-spacing="1.5">BLE</text>
  <text font-family="Inter, 'Noto Sans SC', Arial, sans-serif" font-size="38" font-weight="850" fill="#f8fff9" letter-spacing="0"><tspan x="88" y="230">nRF52840 </tspan><tspan x="88" y="282">+ STM32 主从架构设计与 Bicycle_Watch 集成实战</tspan></text>
  <path d="M88 430 H470" stroke="#63d471" stroke-width="8" stroke-linecap="round"/>
  <text x="88" y="486" font-family="JetBrains Mono, Consolas, monospace" font-size="20" fill="#f8fff9" opacity="0.74">nrf52840-stm32-integration</text>
  <g transform="translate(780,176)"><rect x="62" y="72" width="126" height="132" rx="18" fill="none" stroke="#f59e0b" stroke-width="6" stroke-linecap="round" stroke-linejoin="round"/><rect x="236" y="72" width="126" height="132" rx="18" fill="none" stroke="#f59e0b" stroke-width="6" stroke-linecap="round" stroke-linejoin="round"/><path d="M188 138h48M218 110l34 28-34 28M106 238h212" stroke="#63d471" stroke-width="7" stroke-linecap="round" stroke-linejoin="round" fill="none"/><path d="M92 116h66M266 116h66M92 160h48M266 160h48" stroke="#f59e0b" stroke-width="6" stroke-linecap="round" stroke-linejoin="round" fill="none"/></g>
  <path d="M790 474 C880 522 1002 520 1102 456" fill="none" stroke="#f59e0b" stroke-width="7" stroke-linecap="round" opacity="0.48"/>
</svg>
