<svg xmlns="http://www.w3.org/2000/svg" width="1200" height="630" viewBox="0 0 1200 630" role="img" aria-label="用 LittleFS 保存骑行记录：外部 Flash 文件系统在 STM32 码表中的应用">
  <defs>
    <linearGradient id="bg" x1="0" y1="0" x2="1" y2="1"><stop offset="0" stop-color="#06212a"/><stop offset="1" stop-color="#0b1116"/></linearGradient>
    <pattern id="grid" width="44" height="44" patternUnits="userSpaceOnUse"><path d="M44 0H0V44" fill="none" stroke="#22c7b8" stroke-opacity="0.075" stroke-width="1"/></pattern>
  </defs>
  <rect width="1200" height="630" fill="url(#bg)"/>
  <rect width="1200" height="630" fill="url(#grid)"/>
  <circle cx="1034" cy="92" r="198" fill="#22c7b8" opacity="0.105"/>
  <circle cx="128" cy="572" r="236" fill="#f2b84d" opacity="0.08"/>
  <rect x="64" y="74" width="1072" height="482" rx="28" fill="#ffffff" opacity="0.042" stroke="#ffffff" stroke-opacity="0.14"/>
  <text x="88" y="140" font-family="Inter, 'Noto Sans SC', Arial, sans-serif" font-size="27" font-weight="800" fill="#f2b84d" letter-spacing="1.5">RidePulse</text>
  <text font-family="Inter, 'Noto Sans SC', Arial, sans-serif" font-size="38" font-weight="850" fill="#e7fbff" letter-spacing="0"><tspan x="88" y="230">用 LittleFS 保存骑行记录：</tspan><tspan x="88" y="282">外部 Flash 文件系统在 STM32 码表中的应用</tspan></text>
  <path d="M88 430 H470" stroke="#22c7b8" stroke-width="8" stroke-linecap="round"/>
  <text x="88" y="486" font-family="JetBrains Mono, Consolas, monospace" font-size="20" fill="#e7fbff" opacity="0.74">ridepulse-littlefs-ride-record</text>
  <g transform="translate(792,190)"><rect x="30" y="42" width="260" height="190" rx="22" stroke="#22c7b8" stroke-width="7" stroke-linecap="round" stroke-linejoin="round" fill="none"/><path d="M78 92h164M78 136h124M78 180h164" stroke="#f2b84d" stroke-width="6" stroke-linecap="round" stroke-linejoin="round" fill="none"/><path d="M58 262c54-34 128-36 202 0" stroke="#f2b84d" stroke-width="6" stroke-linecap="round" stroke-linejoin="round" fill="none" opacity="0.7"/></g>
  <path d="M790 474 C880 522 1002 520 1102 456" fill="none" stroke="#f2b84d" stroke-width="7" stroke-linecap="round" opacity="0.48"/>
</svg>
