<svg xmlns="http://www.w3.org/2000/svg" width="1200" height="630" viewBox="0 0 1200 630" role="img" aria-label="RidePulse 自行车码表项目总览：从智能手表固件到骑行终端">
  <defs>
    <linearGradient id="bg" x1="0" y1="0" x2="1" y2="1"><stop offset="0" stop-color="#06212a"/><stop offset="1" stop-color="#0b1116"/></linearGradient>
    <pattern id="grid" width="44" height="44" patternUnits="userSpaceOnUse"><path d="M44 0H0V44" fill="none" stroke="#22c7b8" stroke-opacity="0.075" stroke-width="1"/></pattern>
  </defs>
  <rect width="1200" height="630" fill="url(#bg)"/>
  <rect width="1200" height="630" fill="url(#grid)"/>
  <circle cx="1034" cy="92" r="198" fill="#22c7b8" opacity="0.105"/>
  <circle cx="128" cy="572" r="236" fill="#f2b84d" opacity="0.08"/>
  <rect x="64" y="74" width="1072" height="482" rx="28" fill="#ffffff" opacity="0.042" stroke="#ffffff" stroke-opacity="0.14"/>
  <text x="88" y="140" font-family="Inter, 'Noto Sans SC', Arial, sans-serif" font-size="27" font-weight="800" fill="#f2b84d" letter-spacing="1.5">RidePulse</text>
  <text font-family="Inter, 'Noto Sans SC', Arial, sans-serif" font-size="38" font-weight="850" fill="#e7fbff" letter-spacing="0"><tspan x="88" y="230">RidePulse 自行车码表项目总览：</tspan><tspan x="88" y="282">从智能手表固件到骑行终端</tspan></text>
  <path d="M88 430 H470" stroke="#22c7b8" stroke-width="8" stroke-linecap="round"/>
  <text x="88" y="486" font-family="JetBrains Mono, Consolas, monospace" font-size="20" fill="#e7fbff" opacity="0.74">ridepulse-project-overview</text>
  <g transform="translate(796,214)"><circle cx="54" cy="142" r="46" stroke="#22c7b8" stroke-width="7" stroke-linecap="round" stroke-linejoin="round" fill="none"/><circle cx="228" cy="142" r="46" stroke="#22c7b8" stroke-width="7" stroke-linecap="round" stroke-linejoin="round" fill="none"/><path d="M54 142L116 62h58l54 80M116 62l42 80M98 142h104M174 62h46" stroke="#f2b84d" stroke-width="6" stroke-linecap="round" stroke-linejoin="round" fill="none"/><path d="M62 232c82 40 196 34 270-28" stroke="#22c7b8" stroke-width="7" stroke-linecap="round" stroke-linejoin="round" fill="none" opacity="0.48"/></g>
  <path d="M790 474 C880 522 1002 520 1102 456" fill="none" stroke="#f2b84d" stroke-width="7" stroke-linecap="round" opacity="0.48"/>
</svg>
